<?xml version="1.0" encoding="UTF-8"?>
<svg width="120" height="120" viewBox="0 0 120 120" fill="none" xmlns="http://www.w3.org/2000/svg">
  <g transform="translate(-8,0)">
    <path d="M97.6,64.2c-0.1-13.6,11.1-20.1,11.6-20.4c-6.3-9.2-16.1-10.5-19.6-10.7c-8.3-0.8-16.2,4.9-20.4,4.9c-4.2,0-10.7-4.8-17.6-4.7c-9,0.1-17.3,5.2-21.9,13.2c-9.3,16.1-2.4,39.9,6.7,53c4.5,6.5,9.8,13.8,16.8,13.5c6.7-0.3,9.2-4.3,17.2-4.3c8,0,10.2,4.3,17.2,4.2c7.1-0.1,11.6-6.6,16-13.1c5.1-7.4,7.2-14.6,7.3-15c-0.2-0.1-14-5.4-14.1-21.4z" fill="#000"/>
    <path d="M80.2,27.2c3.7-4.5,6.2-10.7,5.5-16.9c-5.3,0.2-11.7,3.5-15.5,7.9c-3.4,3.9-6.4,10.2-5.3,16.2C71.1,35.1,76.5,31.7,80.2,27.2z" fill="#000"/>
  </g>
</svg>
